<svg xmlns="http://www.w3.org/2000/svg" viewBox="0 0 520.95 544.76"><defs><style>.cls-1,.cls-2,.cls-3{fill:none;stroke-width:5px;}.cls-1,.cls-2{stroke:#000;}.cls-1,.cls-3{stroke-linecap:round;stroke-linejoin:round;}.cls-2{stroke-miterlimit:10;}.cls-3{stroke:#040305;}</style></defs><g id="Layer_2" data-name="Layer 2"><g id="Layer_1-2" data-name="Layer 1"><path class="cls-1" d="M229.37,101.08s97-69.14,178.31,13.34c0,0,7.28,8.5,3.64,65.51,0,0-3.61,22.92-3.22,31.59.32,7-6.16,47.55-8.37,59.6a30.61,30.61,0,0,1-2,6.56c-5.37,12.65-26.33,57.1-35.49,67.92-10,11.81-23.56,24.85-23.56,24.85s-24,21.85-61.26,1.28-55.26-41.55-55.26-41.55-15.43-15.85-29.56-67.68c0,0-18.85-3.86-24-26.56,0,0-1-25,3-32.24a11.79,11.79,0,0,0,1.4-5.22c.24-6.59,1.21-20.16,5.06-23.37,5.14-4.29,8.14-.86,8.14-.86s8.56,5.55,9.46,8.69C197.3,188.7,207.41,128.15,229.37,101.08Z"/><path class="cls-2" d="M222.19,330.18c7.93,16.17,51.73,42.06-16.44,125,0,0-144.57,9-131.88,77.77,0,0-99.42-34.49-63.58-102.8s64.25-74.39,64.25-74.39c14.63-1.61-144.72-90.15,4.74-158.26,0,0-68.31-239.41,163.66-162.31,0,0,59.52-28.41,98.75-10.82,0,0,35.16-43.29,91.3-8.12s107.53,186.66,56.13,237.39c0,0,60.19,62.89,8.12,100.77,0,0-46,18.93-46.67,36.52s78,7.57,28.41,59.51C465.09,465,503,504.87,447.24,539c0,0,20.53-59.14-111.28-71.41,0,0-50.71-64-14.87-88.35"/><path class="cls-2" d="M284.15,306.1a4.53,4.53,0,0,0-.69,6.72c4.41,4.86,13.26,14.09,18.74,16.3,8.16,3.3,29.83,12.22,45.45,2.61,11.2-6.89,9.62-12.61,7.85-15.27a4.64,4.64,0,0,1-.59-4c1.11-3.57,1.47-10.88-13.21-19.79a4.55,4.55,0,0,0-2.95-.64c-3.66.45-12.32,1.58-15.23-1.54C320.21,287,293.7,299.27,284.15,306.1Z"/><path class="cls-3" d="M317.85,184.47l6.2-10.94s-46.29-21.5-56.5-19.32c-15.09,3.24-32.57,10.56-32.44,10.94a5.72,5.72,0,0,0,1.54-.31,155.6,155.6,0,0,1,22.61.95A161.36,161.36,0,0,1,317.85,184.47Z"/><path class="cls-3" d="M352.48,189.57l2.19-12.76s37.54-8.38,41.92-6.92c6,2,15.26,9,14.73,10-.14.28-.95.15-1.66,0-4.91.2-10,.57-15.32,1.14A231.4,231.4,0,0,0,352.48,189.57Z"/></g></g></svg>