<svg width="53" height="38" viewBox="0 0 53 38" fill="none" xmlns="http://www.w3.org/2000/svg">
<path d="M51.1071 0H1.89286C1.39084 0 0.909385 0.200178 0.554405 0.556497C0.199425 0.912817 0 1.39609 0 1.9C0 2.40391 0.199425 2.88718 0.554405 3.2435C0.909385 3.59982 1.39084 3.8 1.89286 3.8H51.1071C51.6092 3.8 52.0906 3.59982 52.4456 3.2435C52.8006 2.88718 53 2.40391 53 1.9C53 1.39609 52.8006 0.912817 52.4456 0.556497C52.0906 0.200178 51.6092 0 51.1071 0Z" fill="black"/>
<path d="M1.89286 20.9H26.5C27.002 20.9 27.4835 20.6998 27.8385 20.3435C28.1934 19.9872 28.3929 19.5039 28.3929 19C28.3929 18.4961 28.1934 18.0128 27.8385 17.6565C27.4835 17.3002 27.002 17.1 26.5 17.1H1.89286C1.39084 17.1 0.909385 17.3002 0.554405 17.6565C0.199425 18.0128 0 18.4961 0 19C0 19.5039 0.199425 19.9872 0.554405 20.3435C0.909385 20.6998 1.39084 20.9 1.89286 20.9Z" fill="black"/>
<path d="M43.5357 34.2H1.89286C1.39084 34.2 0.909385 34.4002 0.554405 34.7565C0.199425 35.1128 0 35.5961 0 36.1C0 36.6039 0.199425 37.0872 0.554405 37.4435C0.909385 37.7998 1.39084 38 1.89286 38H43.5357C44.0377 38 44.5192 37.7998 44.8742 37.4435C45.2291 37.0872 45.4286 36.6039 45.4286 36.1C45.4286 35.5961 45.2291 35.1128 44.8742 34.7565C44.5192 34.4002 44.0377 34.2 43.5357 34.2Z" fill="black"/>
</svg>
