<svg width="53" height="38" viewBox="0 0 53 38" fill="none" xmlns="http://www.w3.org/2000/svg">
<path d="M51.107 0H1.89267C1.39066 0 0.909202 0.200178 0.554222 0.556497C0.199243 0.912817 -0.000183105 1.39609 -0.000183105 1.9C-0.000183105 2.40391 0.199243 2.88718 0.554222 3.2435C0.909202 3.59982 1.39066 3.8 1.89267 3.8H51.107C51.609 3.8 52.0904 3.59982 52.4454 3.2435C52.8004 2.88718 52.9998 2.40391 52.9998 1.9C52.9998 1.39609 52.8004 0.912817 52.4454 0.556497C52.0904 0.200178 51.609 0 51.107 0Z" fill="black"/>
<path d="M24.607 21.4565H49.2141C49.7161 21.4565 50.1976 21.2563 50.5526 20.9C50.9075 20.5437 51.107 20.0604 51.107 19.5565C51.107 19.0526 50.9075 18.5693 50.5526 18.213C50.1976 17.8567 49.7161 17.6565 49.2141 17.6565H24.607C24.105 17.6565 23.6235 17.8567 23.2685 18.213C22.9135 18.5693 22.7141 19.0526 22.7141 19.5565C22.7141 20.0604 22.9135 20.5437 23.2685 20.9C23.6235 21.2563 24.105 21.4565 24.607 21.4565Z" fill="black"/>
<path d="M43.5355 34.2H1.89267C1.39066 34.2 0.909202 34.4002 0.554222 34.7565C0.199243 35.1128 -0.000183105 35.5961 -0.000183105 36.1C-0.000183105 36.6039 0.199243 37.0872 0.554222 37.4435C0.909202 37.7998 1.39066 38 1.89267 38H43.5355C44.0376 38 44.519 37.7998 44.874 37.4435C45.229 37.0872 45.4284 36.6039 45.4284 36.1C45.4284 35.5961 45.229 35.1128 44.874 34.7565C44.519 34.4002 44.0376 34.2 43.5355 34.2Z" fill="black"/>
</svg>
